<?xml version="1.0" encoding="UTF-8"?><svg id="a" xmlns="http://www.w3.org/2000/svg" width="1080" height="1080" viewBox="0 0 1080 1080"><g><path d="M493.19,473.29c0,87.1-.03,174.2,0,261.31,0,16.57,9.5,26.4,22.94,24.07,11.06-1.92,16.74-9.6,16.75-23.18,.05-50.22,0-100.44,0-150.66,0-4.24,0-8.48,0-13.49,4.9-.24,8.64-.43,14.35-.72,0,4.91,0,9.02,0,13.14,0,30.21-.05,60.42,.02,90.63,.03,15.03,7.52,23.99,19.77,23.99,12.21,0,19.91-9.08,19.92-23.95,.04-66.7,0-133.4-.01-200.1,0-4.29,0-8.59,0-12.88,.68-.3,1.36-.59,2.04-.89,2.41,4.82,5.37,9.44,7.13,14.49,6.1,17.48,16.64,31.63,30.35,43.92,9.92,8.89,18.81,18.92,28.45,28.13,8.11,7.75,18.61,8.01,25.13,1.16,6.37-6.7,5.78-15.94-1.56-24.21-.52-.59-1.03-1.2-1.64-1.68-33.24-26.47-53.93-61.24-67.36-100.98-5.32-15.75-17.03-24.63-33.53-25.01-24.67-.56-49.39-.4-74.05,.44-14.62,.5-24.7,8.85-30.28,22.45-1.04,2.54-2.44,4.94-3.29,7.54-12.2,37.33-32.48,69.18-63.29,93.98-1.52,1.22-2.83,2.72-4.12,4.2-6.55,7.57-7.37,15.55-.64,23.27,5.91,6.77,16.86,6.82,24.16-.56,24.61-24.9,53.65-46.46,63.95-82.51,.48-1.68,1.84-3.11,2.8-4.66l2.01,.5c0,4.09,0,8.18,0,12.27Z" fill="silver"/><path d="M573.1,347.39c-.39-18.18-15.18-32.54-33.35-32.38-18.62,.17-33.14,15.31-32.75,34.15,.38,18.18,15.11,32.44,33.35,32.28,18.7-.17,33.16-15.19,32.75-34.05Z" fill="silver"/></g><g><path d="M308.55,852.09h18.39v35.29c-9.57,7.21-22.74,11.06-35.16,11.06-27.33,0-47.46-18.76-47.46-44.98s20.13-44.98,47.84-44.98c15.28,0,27.96,5.22,36.41,15.03l-12.92,11.93c-6.34-6.71-13.67-9.82-22.49-9.82-16.9,0-28.45,11.31-28.45,27.83s11.55,27.83,28.21,27.83c5.47,0,10.56-.99,15.66-3.73v-25.47Z" fill="silver"/><path d="M386.44,866.13v30.81h-20.13v-31.06l-33.67-55.91h21.37l23.24,38.64,23.24-38.64h19.76l-33.8,56.16Z" fill="silver"/><path d="M507.07,896.95l-.12-52.19-25.6,42.99h-9.07l-25.47-41.87v51.07h-18.89v-86.98h16.65l32.55,54.05,32.06-54.05h16.53l.25,86.98h-18.89Z" fill="silver"/><path d="M612.55,826.37h-27.83v-16.4h75.79v16.4h-27.83v70.58h-20.13v-70.58Z" fill="silver"/><path d="M736.77,880.79v16.15h-67.34v-86.98h65.73v16.15h-45.72v18.89h40.38v15.66h-40.38v20.13h47.34Z" fill="silver"/><path d="M742.2,853.46c0-26.22,20.13-44.98,47.22-44.98,15.04,0,27.58,5.47,35.79,15.41l-12.92,11.93c-5.84-6.71-13.17-10.19-21.87-10.19-16.28,0-27.83,11.43-27.83,27.83s11.55,27.83,27.83,27.83c8.7,0,16.03-3.48,21.87-10.31l12.92,11.93c-8.2,10.06-20.75,15.53-35.91,15.53-26.96,0-47.09-18.76-47.09-44.98Z" fill="silver"/></g><path d="M693.01,518.91c30.82-45.41,50.31-98.49,56.26-153.01,4.21-41.95,.76-87.2-21.29-123.7-22.93-37.82-62.72-49.62-103.33-33.32-25.42,10.05-47.43,28.06-65.72,48.29-3.09,3.57-7.1,6.32-11.62,7.72-9.31,3-19.99-.23-26.24-7.72-24.79-27.27-57.28-51.92-94.93-55.19-44.1-3.64-74.44,28.94-87.12,68.49-13.33,40.63-11.92,85.93-3.14,127.65,9.06,42.92,26.35,84.42,51.11,120.78-3.57-4.24-7.11-8.54-10.41-13.03-25.19-33.65-43.03-72.65-53.24-113.4-7.41-30.33-10.68-61.91-7.28-93.08,5.83-61.38,42.85-121.68,111.43-117.98,42.15,2.77,78.67,28.23,106.75,58.03,.47,.55,3.1,3.34,3.49,3.79,1.04,1.23,3.13,1.39,4.29,.25,13.01-14.27,27.24-27.35,43.52-37.99,41.22-27.81,95.71-35.98,135.44-.75,35.54,32.28,45.6,82.92,44.1,128.93-2.82,66.61-29.12,134.28-72.07,185.24h0Z" fill="#a7f500"/><path d="M547.33,853.21c0-9.07,6.96-15.66,15.53-15.66s15.53,6.58,15.53,15.66-7.08,15.78-15.53,15.78-15.53-6.71-15.53-15.78Z" fill="#a7f500"/></svg>